<?xml version="1.0" standalone="no"?>
<!DOCTYPE svg PUBLIC "-//W3C//DTD SVG 20010904//EN"
 "http://www.w3.org/TR/2001/REC-SVG-20010904/DTD/svg10.dtd">
<svg version="1.0" xmlns="http://www.w3.org/2000/svg"
 width="830.000000pt" height="300.000000pt" viewBox="0 0 830.000000 300.000000"
 preserveAspectRatio="xMidYMid meet">

<g transform="translate(0.000000,300.000000) scale(0.100000,-0.100000)"
fill="#000000" stroke="none">
<path d="M3146 1653 c-3 -4 -6 -51 -6 -105 0 -91 1 -98 20 -98 19 0 20 7 20
99 0 76 -3 100 -14 104 -8 3 -17 3 -20 0z"/>
<path d="M3659 1652 c-1 -4 -2 -51 -3 -104 -1 -95 0 -98 21 -98 20 0 22 6 25
58 3 49 6 57 23 57 17 0 20 -8 23 -57 3 -50 6 -58 22 -58 18 0 20 7 20 65 0
55 -3 66 -21 76 -12 6 -34 9 -49 5 -26 -5 -28 -3 -26 26 1 22 -4 31 -16 33
-10 2 -19 0 -19 -3z"/>
<path d="M3989 1652 c-1 -4 -2 -51 -3 -104 -1 -96 0 -98 22 -98 22 0 23 2 20
102 -3 87 -5 101 -20 104 -10 1 -19 -1 -19 -4z"/>
<path d="M4150 1623 c0 -31 -2 -32 -30 -27 -18 4 -36 1 -45 -6 -22 -18 -29
-74 -13 -107 12 -26 18 -28 71 -29 l57 -1 0 103 c0 97 -1 103 -20 101 -16 -1
-20 -8 -20 -34z m-12 -62 c8 -5 12 -22 10 -42 -2 -26 -8 -34 -22 -34 -29 0
-42 28 -28 59 12 28 19 31 40 17z"/>
<path d="M2980 1545 c0 -88 1 -95 20 -95 16 0 20 7 20 35 0 32 3 35 28 35 37
0 62 28 62 68 0 39 -22 52 -84 52 l-46 0 0 -95z m74 59 c32 -12 13 -54 -25
-54 -5 0 -9 14 -9 30 0 31 6 35 34 24z"/>
<path d="M4570 1555 c0 -47 -1 -88 -2 -92 -2 -5 6 -9 17 -11 19 -3 20 2 17 93
-3 74 -6 95 -18 95 -11 0 -14 -18 -14 -85z"/>
<path d="M3230 1590 c-19 -12 -5 -25 28 -25 38 0 43 -19 7 -23 -42 -5 -57 -20
-53 -56 3 -31 3 -31 66 -32 l62 -1 0 51 c0 66 -20 96 -63 96 -18 0 -39 -4 -47
-10z m70 -74 c0 -18 -15 -36 -31 -36 -18 0 -26 20 -12 33 7 8 43 10 43 3z"/>
<path d="M3385 1580 c-27 -30 -27 -97 0 -116 27 -20 89 -14 93 8 3 15 -2 17
-26 12 -24 -5 -32 -2 -42 16 -19 35 2 72 37 68 20 -2 28 2 28 12 0 25 -67 25
-90 0z"/>
<path d="M3511 1574 c-24 -30 -26 -55 -10 -87 17 -31 28 -37 77 -37 34 0 42 4
42 18 0 14 -7 17 -39 14 -28 -3 -40 0 -44 12 -5 13 2 16 43 16 47 0 50 2 50
25 0 61 -81 87 -119 39z m77 -21 c2 -9 -7 -13 -27 -13 -23 0 -29 4 -24 16 6
17 44 15 51 -3z"/>
<path d="M3836 1578 c-38 -54 -9 -128 50 -128 44 0 74 29 74 73 0 67 -89 106
-124 55z m77 -29 c5 -9 7 -28 3 -43 -5 -21 -12 -27 -29 -24 -23 3 -35 43 -23
75 7 18 35 14 49 -8z"/>
<path d="M4240 1580 c-24 -24 -26 -77 -4 -108 12 -17 25 -22 60 -22 57 0 63
27 7 32 -56 5 -55 28 1 28 44 0 46 1 46 29 0 16 -7 37 -16 45 -22 22 -70 20
-94 -4z m74 -25 c4 -11 -2 -15 -24 -15 -29 0 -38 9 -23 23 12 12 41 7 47 -8z"/>
<path d="M4380 1525 c0 -68 2 -75 20 -75 17 0 20 7 20 39 0 52 8 71 30 71 15
0 30 18 30 36 0 9 -37 3 -49 -8 -11 -10 -14 -10 -18 0 -3 6 -11 12 -19 12 -11
0 -14 -17 -14 -75z"/>
<path d="M4640 1523 c0 -66 2 -73 20 -73 17 0 20 7 20 49 0 49 18 79 40 66 5
-3 10 -31 10 -61 0 -47 2 -54 20 -54 17 0 20 7 20 43 0 24 7 52 15 63 15 19
15 19 30 0 9 -12 13 -36 12 -63 -2 -36 0 -43 15 -43 16 0 18 10 18 70 0 67 -1
70 -27 76 -15 4 -34 2 -45 -5 -13 -8 -24 -9 -31 -3 -7 6 -36 10 -64 9 l-53 -1
0 -73z"/>
<path d="M4921 1591 c-22 -14 -3 -31 29 -24 23 4 30 2 30 -11 0 -11 -9 -16
-29 -16 -29 0 -61 -22 -61 -41 0 -6 5 -19 10 -30 12 -22 59 -26 78 -7 9 9 12
9 12 0 0 -7 7 -12 15 -12 12 0 15 14 15 65 0 53 -3 66 -19 75 -24 12 -61 13
-80 1z m57 -88 c-4 -22 -48 -31 -48 -10 0 19 10 27 32 27 13 0 18 -6 16 -17z"/>
<path d="M5068 1589 c-20 -11 -25 -64 -8 -74 8 -5 7 -11 0 -20 -7 -8 -9 -19
-6 -24 4 -5 2 -12 -4 -16 -13 -8 -13 -52 1 -61 17 -10 85 -7 108 6 23 12 28
49 9 68 -7 7 -27 12 -45 12 -18 0 -33 5 -33 10 0 6 11 10 24 10 31 0 59 27 53
51 -3 10 2 20 10 23 8 3 11 10 8 16 -8 13 -95 12 -117 -1z m62 -39 c0 -27 -19
-35 -38 -17 -12 13 -13 19 -3 31 16 19 41 10 41 -14z m16 -111 c8 -14 -14 -29
-43 -29 -24 0 -38 14 -28 30 8 14 62 13 71 -1z"/>
<path d="M5215 1575 c-31 -30 -33 -77 -5 -105 27 -27 110 -29 110 -2 0 14 -7
17 -39 14 -28 -3 -40 0 -44 12 -5 13 2 16 43 16 47 0 50 2 50 25 0 32 -33 65
-65 65 -14 0 -37 -11 -50 -25z m73 -22 c2 -8 -6 -13 -22 -13 -17 0 -26 5 -26
16 0 19 41 16 48 -3z"/>
</g>
</svg>
